# xmcd
#
# Track frame offsets:
#      150
#      18288
#      36741
#      56895
#      78077
#      98705
#      115573
#      136628
#      156382
#      178074
#      197491
#      214492
#      233106
#      251342
#      269066
#      287202
#      317649
# 
# Disc length: 4408 seconds
#
# Revision: 1
# Processed by: cddbd v1.4PL0 Copyright (c) Steve Scherf et al.
#
# Submitted via: FreeRIP 1.21
#
DISCID=f3113611
DTITLE=Andrea Bocelli - Platinum Collection
DYEAR=2000
DGENRE=Blues
TTITLE0=Canto Della Terra
TTITLE1=Time To Say Goodbye (with Srarh Brightman)
TTITLE2=The Prayer (with Celine Dion)
TTITLE3=Per Amore
TTITLE4='O Mare E Tu (with Dulce Pontes)
TTITLE5=Romanza
TTITLE6=O Sole Mio
TTITLE7=E Chiove
TTITLE8=Immenso
TTITLE9=Sempre Sempre
TTITLE10=Nel Cuore Lei (with Eros Ramazzotti)
TTITLE11=Macchine De Guerra
TTITLE12=Sogno (Dream)
TTITLE13=Le Tue Parole
TTITLE14=Cantico
TTITLE15=Musica E' (with Eros Ramazzotti) edit
TTITLE16=E Lucevan Le Stelle..
EXTD=YEAR: 2000 ID3G: 0
EXTT0=
EXTT1=
EXTT2=
EXTT3=
EXTT4=
EXTT5=
EXTT6=
EXTT7=
EXTT8=
EXTT9=
EXTT10=
EXTT11=
EXTT12=
EXTT13=
EXTT14=
EXTT15=
EXTT16=
PLAYORDER=
